<?xml version="1.0" standalone="no"?>
<!DOCTYPE svg PUBLIC "-//W3C//DTD SVG 20010904//EN"
 "http://www.w3.org/TR/2001/REC-SVG-20010904/DTD/svg10.dtd">
<svg version="1.0" xmlns="http://www.w3.org/2000/svg"
 width="508.000000pt" height="116.000000pt" viewBox="0 0 508.000000 116.000000"
 preserveAspectRatio="xMidYMid meet">

<g transform="translate(0.000000,116.000000) scale(0.100000,-0.100000)"
fill="#000000" stroke="none">
<path d="M735 996 c-186 -86 -224 -329 -73 -461 63 -56 132 -79 218 -73 203
15 321 223 230 405 -50 100 -138 152 -255 153 -53 0 -82 -6 -120 -24z m210
-55 c43 -19 100 -78 116 -118 16 -43 11 -140 -11 -182 -81 -160 -309 -160
-390 0 -25 47 -27 147 -5 193 20 42 82 101 120 114 47 16 126 13 170 -7z"/>
<path d="M1860 744 l0 -275 28 3 27 3 5 197 5 197 125 -135 c69 -75 155 -168
192 -207 l67 -72 1 278 0 277 -30 0 -30 0 0 -202 0 -203 -38 40 c-20 22 -82
90 -137 150 -55 61 -120 132 -145 158 -25 27 -46 53 -48 58 -2 5 -8 9 -13 9
-5 0 -9 -115 -9 -276z"/>
<path d="M3120 763 c-62 -142 -115 -266 -118 -276 -4 -16 0 -18 29 -15 31 3
35 8 64 73 44 101 34 95 146 95 l100 0 25 -57 c42 -101 47 -108 82 -111 18 -2
32 0 32 4 0 14 -235 544 -241 544 -3 0 -57 -116 -119 -257z m163 22 c20 -44
33 -83 31 -87 -6 -10 -154 -11 -154 -1 0 21 74 183 81 176 4 -4 23 -44 42 -88z"/>
<path d="M4198 987 c-49 -25 -72 -45 -102 -89 -35 -51 -39 -65 -44 -133 -6
-94 14 -150 76 -217 173 -185 492 -61 492 193 0 161 -120 278 -287 279 -61 0
-80 -5 -135 -33z m227 -46 c49 -22 99 -77 115 -126 20 -61 9 -148 -26 -198
-34 -49 -119 -97 -173 -97 -86 0 -164 48 -202 122 -23 44 -28 136 -10 180 16
42 90 117 125 127 52 15 128 12 171 -8z"/>
<path d="M210 739 l0 -272 108 5 c122 6 162 21 192 71 39 64 15 185 -40 202
-24 8 -26 21 -5 29 26 9 48 75 41 119 -15 90 -61 117 -200 117 l-96 0 0 -271z
m203 198 c10 -6 20 -29 23 -49 13 -80 -15 -108 -111 -108 l-55 0 0 85 0 85 63
0 c35 0 71 -6 80 -13z m-52 -217 c65 0 99 -30 99 -89 0 -22 -3 -47 -6 -56 -11
-27 -60 -45 -124 -45 l-60 0 0 93 c0 97 4 111 28 102 7 -3 36 -5 63 -5z"/>
<path d="M1210 740 l0 -271 133 3 132 3 3 28 3 27 -93 0 c-60 0 -98 4 -106 12
-9 9 -12 76 -12 240 l0 228 -30 0 -30 0 0 -270z"/>
<path d="M1702 743 l3 -268 30 0 30 0 0 265 0 265 -33 3 -32 3 2 -268z"/>
<path d="M2402 743 l3 -268 126 1 c102 2 135 6 171 22 54 23 93 63 119 117 27
58 26 194 -2 255 -48 107 -119 140 -300 140 l-119 0 2 -267z m252 196 c55 -15
92 -56 112 -125 30 -106 -11 -226 -90 -259 -17 -7 -70 -16 -118 -20 l-88 -7 0
211 0 211 73 0 c39 0 90 -5 111 -11z"/>
<path d="M2912 743 l3 -268 30 0 30 0 3 268 2 267 -35 0 -35 0 2 -267z"/>
<path d="M3690 739 l0 -272 108 5 c72 4 119 11 140 22 63 32 92 144 55 207
-10 16 -20 29 -23 29 -3 0 -13 7 -24 15 -17 13 -17 15 7 39 30 30 41 73 32
118 -19 82 -66 108 -200 108 l-95 0 0 -271z m210 189 c13 -15 20 -35 20 -64 0
-60 -32 -84 -111 -84 l-59 0 0 85 0 85 65 0 c53 0 68 -4 85 -22z m1 -219 c26
-14 39 -42 39 -86 -1 -67 -37 -93 -129 -93 l-61 0 0 93 c0 52 3 97 7 101 10 9
120 -2 144 -15z"/>
<path d="M4690 740 l0 -271 133 3 132 3 3 28 3 27 -90 0 c-49 0 -96 3 -105 6
-14 5 -16 36 -16 240 l0 234 -30 0 -30 0 0 -270z"/>
<path d="M3894 307 c-10 -28 1 -220 14 -225 9 -3 12 25 12 117 0 77 -4 121
-10 121 -6 0 -13 -6 -16 -13z"/>
<path d="M3934 200 c0 -69 1 -97 3 -63 2 35 2 91 0 125 -2 35 -3 7 -3 -62z"/>
<path d="M3968 209 c-2 -61 0 -116 4 -123 4 -6 8 44 8 112 0 67 -2 122 -4 122
-3 0 -6 -50 -8 -111z"/>
<path d="M4020 200 c0 -100 3 -120 15 -120 13 0 15 20 15 120 0 100 -2 120
-15 120 -12 0 -15 -20 -15 -120z"/>
<path d="M4084 200 c0 -69 1 -97 3 -63 2 35 2 91 0 125 -2 35 -3 7 -3 -62z"/>
<path d="M4134 200 c0 -69 1 -97 3 -63 2 35 2 91 0 125 -2 35 -3 7 -3 -62z"/>
<path d="M4180 200 c0 -100 3 -120 15 -120 13 0 15 20 15 120 0 100 -2 120
-15 120 -12 0 -15 -20 -15 -120z"/>
<path d="M4250 200 c0 -73 4 -120 10 -120 6 0 10 47 10 120 0 73 -4 120 -10
120 -6 0 -10 -47 -10 -120z"/>
<path d="M4284 200 c0 -69 1 -97 3 -63 2 35 2 91 0 125 -2 35 -3 7 -3 -62z"/>
<path d="M4304 297 c-10 -43 0 -210 14 -215 9 -3 12 25 12 117 0 72 -4 121
-10 121 -5 0 -12 -11 -16 -23z"/>
<path d="M4410 201 c0 -102 2 -121 15 -121 13 0 15 17 13 117 -2 82 -7 118
-15 121 -10 3 -13 -25 -13 -117z"/>
<path d="M4474 200 c0 -69 1 -97 3 -63 2 35 2 91 0 125 -2 35 -3 7 -3 -62z"/>
<path d="M4524 200 c0 -69 1 -97 3 -63 2 35 2 91 0 125 -2 35 -3 7 -3 -62z"/>
<path d="M4544 200 c0 -69 1 -97 3 -63 2 35 2 91 0 125 -2 35 -3 7 -3 -62z"/>
<path d="M4560 201 c0 -74 4 -121 10 -121 6 0 10 45 10 114 0 66 -4 117 -10
121 -6 4 -10 -37 -10 -114z"/>
<path d="M4610 200 c0 -73 4 -120 10 -120 6 0 10 47 10 120 0 73 -4 120 -10
120 -6 0 -10 -47 -10 -120z"/>
<path d="M4670 200 c0 -100 3 -120 15 -120 13 0 15 20 15 120 0 100 -2 120
-15 120 -12 0 -15 -20 -15 -120z"/>
<path d="M4744 200 c0 -69 1 -97 3 -63 2 35 2 91 0 125 -2 35 -3 7 -3 -62z"/>
<path d="M4760 200 c0 -100 3 -120 15 -120 13 0 15 20 15 120 0 100 -2 120
-15 120 -12 0 -15 -20 -15 -120z"/>
<path d="M4800 200 c0 -73 4 -120 10 -120 6 0 10 47 10 120 0 73 -4 120 -10
120 -6 0 -10 -47 -10 -120z"/>
<path d="M4860 200 c0 -100 3 -120 15 -120 13 0 15 20 15 120 0 100 -2 120
-15 120 -12 0 -15 -20 -15 -120z"/>
<path d="M4904 200 c0 -69 1 -97 3 -63 2 35 2 91 0 125 -2 35 -3 7 -3 -62z"/>
<path d="M4930 200 c0 -73 4 -120 10 -120 6 0 10 47 10 120 0 73 -4 120 -10
120 -6 0 -10 -47 -10 -120z"/>
<path d="M4154 195 c0 -66 1 -92 3 -57 2 34 2 88 0 120 -2 31 -3 3 -3 -63z"/>
<path d="M4366 294 c-10 -27 -7 -204 4 -204 6 0 10 43 10 110 0 61 -2 110 -4
110 -2 0 -7 -7 -10 -16z"/>
<path d="M378 293 c8 -3 12 -34 12 -103 0 -69 -4 -100 -12 -103 -7 -3 5 -5 27
-5 22 0 34 2 28 5 -9 3 -13 35 -13 109 l0 104 -27 -1 c-16 0 -22 -3 -15 -6z"/>
<path d="M2138 288 c16 -16 16 -180 0 -196 -9 -9 -3 -12 28 -11 21 0 33 3 27
6 -9 3 -13 35 -13 109 l0 104 -27 0 c-21 0 -24 -3 -15 -12z"/>
<path d="M3038 293 c8 -3 12 -34 12 -103 0 -69 -4 -100 -12 -103 -7 -3 5 -6
27 -6 30 -1 36 2 27 11 -8 8 -12 47 -12 110 l0 98 -27 -1 c-16 0 -22 -3 -15
-6z"/>
<path d="M3160 280 c0 -11 7 -20 15 -20 8 0 15 9 15 20 0 11 -7 20 -15 20 -8
0 -15 -9 -15 -20z"/>
<path d="M3390 280 c0 -11 7 -20 15 -20 8 0 15 9 15 20 0 11 -7 20 -15 20 -8
0 -15 -9 -15 -20z"/>
<path d="M198 279 c8 -8 12 -44 12 -100 0 -75 -3 -88 -17 -92 -10 -3 5 -5 32
-5 28 0 42 2 32 5 -14 4 -17 13 -15 41 3 32 7 37 37 43 38 8 51 23 51 60 0 37
-22 52 -88 57 -47 3 -55 2 -44 -9z m76 -9 c44 -16 31 -90 -16 -90 -15 0 -18 9
-18 50 0 28 2 50 4 50 3 0 16 -4 30 -10z"/>
<path d="M1418 278 c17 -17 16 -185 0 -191 -7 -3 7 -5 32 -5 25 0 37 2 27 5
-14 4 -17 13 -15 41 3 34 6 37 36 40 62 6 81 86 26 111 -35 16 -122 15 -106
-1z m86 -11 c12 -9 17 -23 14 -47 -2 -30 -7 -35 -30 -38 -27 -3 -28 -2 -28 47
0 54 10 63 44 38z"/>
<path d="M2678 283 c8 -3 12 -33 12 -98 0 -65 -4 -95 -12 -98 -7 -3 7 -6 31
-6 39 -1 43 1 27 12 -12 9 -17 23 -14 42 3 26 8 30 36 33 62 6 81 91 25 113
-25 9 -129 12 -105 2z m86 -16 c12 -9 17 -23 14 -47 -2 -30 -7 -35 -30 -38
-27 -3 -28 -1 -28 41 0 58 10 69 44 44z"/>
<path d="M1034 255 c-3 -14 -11 -25 -17 -25 -7 0 -7 -4 1 -12 7 -7 12 -38 12
-70 0 -46 4 -59 19 -67 13 -7 24 -6 37 4 18 14 18 14 -3 15 -21 0 -23 5 -23
53 0 46 3 56 23 65 l22 11 -22 0 c-16 1 -23 7 -23 20 0 30 -19 35 -26 6z"/>
<path d="M3267 250 c-11 -21 -14 -36 -7 -38 5 -2 10 -32 10 -67 0 -53 3 -63
19 -68 10 -2 27 0 37 6 18 10 17 11 -6 17 -22 5 -25 12 -28 58 -2 31 1 53 7
53 26 3 30 4 37 12 4 4 -4 7 -19 7 -21 0 -26 5 -29 28 l-3 27 -18 -35z"/>
<path d="M490 215 c-6 -8 -9 -19 -5 -25 11 -17 25 -11 25 11 0 34 44 21 48
-13 3 -24 0 -28 -22 -28 -27 0 -56 -23 -56 -45 0 -13 26 -45 36 -45 3 0 14 5
25 10 12 7 25 7 37 1 10 -5 24 -6 31 -2 10 6 9 10 -3 14 -12 5 -16 20 -16 60
0 29 -5 58 -12 65 -17 17 -73 15 -88 -3z m70 -89 c0 -24 -23 -41 -41 -30 -13
8 -11 42 4 47 26 11 37 6 37 -17z"/>
<path d="M658 218 c16 -16 16 -110 0 -126 -9 -9 -3 -12 27 -12 25 0 35 3 27 9
-9 5 -12 25 -10 62 3 51 5 54 31 57 l29 3 -4 -65 -3 -66 30 0 c18 0 25 3 18 8
-6 4 -13 34 -15 66 -4 70 -20 87 -68 69 -16 -6 -30 -7 -30 -2 0 5 -10 9 -22 9
-17 0 -19 -3 -10 -12z"/>
<path d="M866 208 c-37 -53 -9 -128 48 -128 19 0 38 6 45 13 8 11 5 13 -19 9
-34 -5 -60 12 -60 39 0 16 8 19 45 19 40 0 45 2 45 23 0 32 -18 47 -56 47 -23
0 -38 -7 -48 -22z m72 -16 c3 -19 -1 -22 -27 -22 -33 0 -41 16 -19 38 18 18
43 10 46 -16z"/>
<path d="M1610 210 c-24 -24 -26 -77 -4 -108 15 -22 54 -29 88 -16 28 11 17
21 -16 16 -22 -3 -35 0 -45 14 -24 33 -16 44 32 44 40 0 45 2 45 23 0 13 -5
28 -12 35 -19 19 -66 14 -88 -8z m70 -15 c0 -21 -5 -25 -30 -25 -33 0 -35 3
-20 31 16 29 50 25 50 -6z"/>
<path d="M1778 213 c-57 -66 -5 -158 74 -131 47 17 60 95 22 133 -21 21 -77
19 -96 -2z m81 -27 c26 -54 -14 -119 -54 -86 -23 19 -29 68 -10 96 20 31 46
28 64 -10z"/>
<path d="M1938 221 c10 -6 13 -33 10 -105 l-3 -96 35 1 c19 1 27 3 18 6 -11 3
-18 14 -18 29 0 21 4 24 39 24 45 0 60 14 68 64 8 48 -17 86 -57 86 -16 0 -32
-4 -35 -10 -4 -6 6 -10 23 -10 32 0 42 -14 42 -59 0 -42 -22 -65 -54 -57 -26
6 -28 10 -26 59 3 75 3 77 -27 77 -19 0 -24 -3 -15 -9z"/>
<path d="M2258 213 c-22 -27 -28 -50 -21 -84 10 -50 82 -71 113 -33 10 11 5
12 -25 7 -39 -6 -55 5 -55 40 0 14 9 17 45 17 48 0 56 11 35 51 -14 25 -71 26
-92 2z m70 -20 c3 -20 -1 -23 -27 -23 -23 0 -31 5 -31 18 0 25 10 33 35 30 12
-2 21 -12 23 -25z"/>
<path d="M2871 204 c-25 -32 -27 -71 -5 -102 20 -28 83 -31 107 -4 23 26 22
94 -1 115 -29 26 -77 22 -101 -9z m77 4 c15 -15 16 -104 1 -113 -5 -4 -21 -4
-34 -1 -18 5 -26 15 -31 42 -12 63 28 108 64 72z"/>
<path d="M3148 218 c16 -16 16 -125 0 -131 -7 -3 5 -6 27 -6 30 -1 36 2 27 11
-7 7 -12 39 -12 75 0 62 -1 63 -27 63 -21 0 -24 -3 -15 -12z"/>
<path d="M3388 218 c16 -16 16 -110 0 -126 -9 -9 -3 -12 27 -12 32 1 37 3 23
11 -14 8 -18 24 -18 74 0 60 -2 65 -22 65 -17 0 -19 -3 -10 -12z"/>
<path d="M3505 210 c-27 -30 -27 -97 0 -116 22 -16 86 -15 92 2 2 6 -10 9 -30
6 -30 -3 -35 0 -47 28 -12 28 -11 37 1 59 19 33 49 40 49 12 0 -12 6 -21 16
-21 10 0 14 7 12 23 -4 32 -66 37 -93 7z"/>
<path d="M3656 214 c-13 -35 -5 -51 34 -69 26 -12 40 -24 38 -34 -5 -23 -36
-26 -59 -5 -18 16 -19 16 -19 -3 0 -15 8 -22 31 -25 74 -11 95 69 24 92 -36
12 -46 36 -20 47 9 3 25 -3 35 -12 19 -17 20 -17 20 3 0 19 -6 22 -39 22 -26
0 -41 -5 -45 -16z"/>
<path d="M1224 186 c-10 -26 4 -48 28 -44 17 2 23 10 23 28 0 18 -6 26 -23 28
-13 2 -25 -3 -28 -12z"/>
<path d="M2484 186 c-10 -26 4 -48 28 -44 17 2 23 10 23 28 0 18 -6 26 -23 28
-13 2 -25 -3 -28 -12z"/>
</g>
</svg>
